<svg width="27" height="28" viewBox="0 0 27 28" fill="none" xmlns="http://www.w3.org/2000/svg">
<path d="M13.5 13.8375C11.6437 13.8375 10.0547 13.16 8.7328 11.8051C7.41093 10.4502 6.74999 8.8214 6.74999 6.91874C6.74999 5.01609 7.41093 3.3873 8.7328 2.03238C10.0547 0.677461 11.6437 0 13.5 0C15.3562 0 16.9453 0.677461 18.2672 2.03238C19.589 3.3873 20.25 5.01609 20.25 6.91874C20.25 8.8214 19.589 10.4502 18.2672 11.8051C16.9453 13.16 15.3562 13.8375 13.5 13.8375ZM0 27.675V22.8319C0 21.8517 0.246375 20.9511 0.739125 20.1301C1.23187 19.3091 1.8855 18.6818 2.7 18.2482C4.44375 17.3545 6.21562 16.6846 8.01562 16.2383C9.81562 15.792 11.6437 15.5683 13.5 15.5672C15.3562 15.5672 17.1844 15.7909 18.9844 16.2383C20.7844 16.6857 22.5562 17.3557 24.3 18.2482C25.1156 18.6806 25.7698 19.3079 26.2625 20.1301C26.7553 20.9523 27.0011 21.8529 27 22.8319V27.675H0ZM3.375 24.2156H23.625V22.8319C23.625 22.5147 23.5479 22.2265 23.3938 21.967C23.2397 21.7076 23.0355 21.5058 22.7812 21.3616C21.2625 20.5833 19.7297 19.9998 18.1828 19.6112C16.6359 19.2226 15.075 19.0277 13.5 19.0265C11.925 19.0265 10.3641 19.2214 8.81718 19.6112C7.27031 20.0009 5.73749 20.5844 4.21875 21.3616C3.96562 21.5058 3.76143 21.7076 3.60618 21.967C3.45093 22.2265 3.37387 22.5147 3.375 22.8319V24.2156ZM13.5 10.3781C14.4281 10.3781 15.2229 10.0397 15.8844 9.36279C16.5459 8.68591 16.8761 7.87122 16.875 6.91874C16.875 5.96742 16.5448 5.15331 15.8844 4.47643C15.224 3.79954 14.4292 3.46053 13.5 3.45937C12.5719 3.45937 11.7776 3.79839 11.1172 4.47643C10.4569 5.15446 10.1261 5.96857 10.125 6.91874C10.125 7.87007 10.4557 8.68475 11.1172 9.36279C11.7787 10.0408 12.573 10.3793 13.5 10.3781Z" fill="white"/>
</svg>
