<svg width="27" height="28" viewBox="0 0 27 28" fill="none" xmlns="http://www.w3.org/2000/svg">
<path d="M13.5 13.8375C11.6438 13.8375 10.0547 13.1601 8.73282 11.8051C7.41095 10.4502 6.75001 8.82142 6.75001 6.91876C6.75001 5.0161 7.41095 3.38731 8.73282 2.03239C10.0547 0.677462 11.6438 0 13.5 0C15.3563 0 16.9453 0.677462 18.2672 2.03239C19.5891 3.38731 20.25 5.0161 20.25 6.91876C20.25 8.82142 19.5891 10.4502 18.2672 11.8051C16.9453 13.1601 15.3563 13.8375 13.5 13.8375ZM0 27.675V22.8319C0 21.8518 0.246376 20.9512 0.739126 20.1301C1.23188 19.3091 1.8855 18.6818 2.7 18.2482C4.44376 17.3546 6.21563 16.6846 8.01564 16.2383C9.81564 15.7921 11.6438 15.5684 13.5 15.5672C15.3563 15.5672 17.1844 15.7909 18.9844 16.2383C20.7844 16.6857 22.5563 17.3557 24.3 18.2482C25.1157 18.6807 25.7698 19.308 26.2626 20.1301C26.7554 20.9523 27.0012 21.8529 27 22.8319V27.675H0ZM3.375 24.2157H23.625V22.8319C23.625 22.5148 23.548 22.2265 23.3938 21.9671C23.2397 21.7076 23.0355 21.5058 22.7813 21.3617C21.2625 20.5833 19.7297 19.9998 18.1828 19.6112C16.636 19.2226 15.075 19.0277 13.5 19.0266C11.925 19.0266 10.3641 19.2215 8.8172 19.6112C7.27032 20.001 5.73751 20.5845 4.21876 21.3617C3.96563 21.5058 3.76144 21.7076 3.60619 21.9671C3.45094 22.2265 3.37388 22.5148 3.375 22.8319V24.2157ZM13.5 10.3781C14.4281 10.3781 15.223 10.0397 15.8845 9.36281C16.546 8.68593 16.8761 7.87124 16.875 6.91876C16.875 5.96743 16.5448 5.15332 15.8845 4.47644C15.2241 3.79955 14.4293 3.46053 13.5 3.45938C12.5719 3.45938 11.7776 3.7984 11.1173 4.47644C10.4569 5.15448 10.1261 5.96858 10.125 6.91876C10.125 7.87009 10.4558 8.68477 11.1173 9.36281C11.7788 10.0409 12.573 10.3793 13.5 10.3781Z" fill="white"/>
</svg>
