<svg width="31" height="28" viewBox="0 0 31 28" fill="none" xmlns="http://www.w3.org/2000/svg">
<path d="M1.53614 4.66667H29.1867C29.5941 4.66667 29.9849 4.42083 30.273 3.98325C30.561 3.54567 30.7229 2.95217 30.7229 2.33333C30.7229 1.7145 30.561 1.121 30.273 0.683418C29.9849 0.245833 29.5941 0 29.1867 0H1.53614C1.12873 0 0.738009 0.245833 0.449926 0.683418C0.161843 1.121 0 1.7145 0 2.33333C0 2.95217 0.161843 3.54567 0.449926 3.98325C0.738009 4.42083 1.12873 4.66667 1.53614 4.66667ZM29.1867 23.3333H1.53614C1.12873 23.3333 0.738009 23.5792 0.449926 24.0168C0.161843 24.4543 0 25.0478 0 25.6667C0 26.2855 0.161843 26.879 0.449926 27.3166C0.738009 27.7542 1.12873 28 1.53614 28H29.1867C29.5941 28 29.9849 27.7542 30.273 27.3166C30.561 26.879 30.7229 26.2855 30.7229 25.6667C30.7229 25.0478 30.561 24.4543 30.273 24.0168C29.9849 23.5792 29.5941 23.3333 29.1867 23.3333ZM29.1867 11.6667H1.53614C1.12873 11.6667 0.738009 11.9125 0.449926 12.3501C0.161843 12.7877 0 13.3812 0 14C0 14.6188 0.161843 15.2123 0.449926 15.6499C0.738009 16.0875 1.12873 16.3333 1.53614 16.3333H29.1867C29.5941 16.3333 29.9849 16.0875 30.273 15.6499C30.561 15.2123 30.7229 14.6188 30.7229 14C30.7229 13.3812 30.561 12.7877 30.273 12.3501C29.9849 11.9125 29.5941 11.6667 29.1867 11.6667Z" fill="white"/>
</svg>
