<svg width="30" height="32" viewBox="0 0 30 32" fill="none" xmlns="http://www.w3.org/2000/svg">
<path d="M29.148 12.7616L16.6669 0.683738C16.6608 0.678278 16.6551 0.672397 16.6498 0.666136C16.1902 0.237512 15.5914 0 14.9703 0C14.3491 0 13.7503 0.237512 13.2908 0.666136L13.2736 0.683738L0.806589 12.7616C0.552284 13.0014 0.349289 13.2928 0.210449 13.6173C0.0716089 13.9417 -5.24874e-05 14.2922 2.88435e-08 14.6465V29.4398C2.88435e-08 30.1188 0.262993 30.77 0.731124 31.2502C1.19926 31.7303 1.83418 32 2.49621 32H9.98486C10.6469 32 11.2818 31.7303 11.7499 31.2502C12.2181 30.77 12.4811 30.1188 12.4811 29.4398V21.7591H17.4735V29.4398C17.4735 30.1188 17.7365 30.77 18.2046 31.2502C18.6728 31.7303 19.3077 32 19.9697 32H27.4584C28.1204 32 28.7553 31.7303 29.2234 31.2502C29.6916 30.77 29.9546 30.1188 29.9546 29.4398V14.6465C29.9546 14.2922 29.883 13.9417 29.7441 13.6173C29.6053 13.2928 29.4023 13.0014 29.148 12.7616ZM27.4584 29.4398H19.9697V21.7591C19.9697 21.0801 19.7067 20.4289 19.2386 19.9488C18.7705 19.4687 18.1355 19.1989 17.4735 19.1989H12.4811C11.819 19.1989 11.1841 19.4687 10.716 19.9488C10.2479 20.4289 9.98486 21.0801 9.98486 21.7591V29.4398H2.49621V14.6465L2.51338 14.6305L14.9773 2.5575L27.4428 14.6273L27.4599 14.6433L27.4584 29.4398Z" fill="white"/>
</svg>
