<svg width="27" height="28" viewBox="0 0 27 28" fill="none" xmlns="http://www.w3.org/2000/svg">
<path d="M13.5 13.8375C11.6438 13.8375 10.0547 13.16 8.73281 11.8051C7.41094 10.4502 6.75 8.82141 6.75 6.91875C6.75 5.0161 7.41094 3.38731 8.73281 2.03238C10.0547 0.677461 11.6438 0 13.5 0C15.3563 0 16.9453 0.677461 18.2672 2.03238C19.5891 3.38731 20.25 5.0161 20.25 6.91875C20.25 8.82141 19.5891 10.4502 18.2672 11.8051C16.9453 13.16 15.3563 13.8375 13.5 13.8375ZM0 27.675V22.8319C0 21.8517 0.246375 20.9511 0.739126 20.1301C1.23188 19.3091 1.8855 18.6818 2.7 18.2482C4.44375 17.3545 6.21563 16.6846 8.01563 16.2383C9.81563 15.7921 11.6438 15.5683 13.5 15.5672C15.3563 15.5672 17.1844 15.7909 18.9844 16.2383C20.7844 16.6857 22.5563 17.3557 24.3 18.2482C25.1156 18.6806 25.7698 19.3079 26.2626 20.1301C26.7553 20.9523 27.0011 21.8529 27 22.8319V27.675H0ZM3.375 24.2156H23.625V22.8319C23.625 22.5148 23.5479 22.2265 23.3938 21.967C23.2397 21.7076 23.0355 21.5058 22.7813 21.3616C21.2625 20.5833 19.7297 19.9998 18.1828 19.6112C16.6359 19.2226 15.075 19.0277 13.5 19.0266C11.925 19.0266 10.3641 19.2214 8.81719 19.6112C7.27032 20.001 5.7375 20.5844 4.21875 21.3616C3.96563 21.5058 3.76144 21.7076 3.60619 21.967C3.45094 22.2265 3.37388 22.5148 3.375 22.8319V24.2156ZM13.5 10.3781C14.4281 10.3781 15.2229 10.0397 15.8844 9.3628C16.5459 8.68592 16.8761 7.87123 16.875 6.91875C16.875 5.96742 16.5448 5.15332 15.8844 4.47643C15.2241 3.79955 14.4293 3.46053 13.5 3.45938C12.5719 3.45938 11.7776 3.79839 11.1173 4.47643C10.4569 5.15447 10.1261 5.96858 10.125 6.91875C10.125 7.87008 10.4558 8.68476 11.1173 9.3628C11.7788 10.0408 12.573 10.3793 13.5 10.3781Z" fill="white"/>
</svg>
